<?xml version="1.0" encoding="utf-8"?>
<!-- Generator: Adobe Illustrator 25.0.1, SVG Export Plug-In . SVG Version: 6.00 Build 0)  -->
<svg version="1.1" id="Layer_1" xmlns="http://www.w3.org/2000/svg" xmlns:xlink="http://www.w3.org/1999/xlink" x="0px" y="0px"
	 viewBox="0 0 100 125" style="enable-background:new 0 0 100 125;" xml:space="preserve">
<style type="text/css">
	.st0{fill:#606282;}
</style>
<path class="st0" d="M23.4,45h53.1c0.5,0,1-0.3,1.1-0.8c0.7-2.1,1-4.3,1-6.5c0-2-0.7-4-1.9-5.7c-3.5-4.7-12-6.9-26.7-6.9
	c-7.5,0-13.3,0.6-17.7,1.8c-4.2,1.1-7.1,2.8-8.9,5.2c-2.9,3.8-2,8.7-1.1,12.1C22.5,44.6,22.9,45,23.4,45z"/>
<path class="st0" d="M76.6,61H23.4c-0.6,0-1.1,0.5-1.1,1.1l0,0v4.3c0,4.6,3.7,8.3,8.3,8.3h38.7c4.6,0,8.3-3.7,8.3-8.3v-4.3
	C77.7,61.6,77.2,61.1,76.6,61C76.6,61.1,76.6,61,76.6,61z"/>
<path class="st0" d="M78.1,47.5H21.9c-3,0-5.4,2.4-5.4,5.4v0.2c0,3,2.4,5.4,5.4,5.4h56.2c3,0,5.4-2.4,5.4-5.4v-0.2
	C83.5,49.9,81.1,47.5,78.1,47.5z"/>
</svg>
