<?xml version="1.0" encoding="utf-8"?>
<!-- Generator: Adobe Illustrator 25.0.1, SVG Export Plug-In . SVG Version: 6.00 Build 0)  -->
<svg version="1.1" id="Layer_1" xmlns="http://www.w3.org/2000/svg" xmlns:xlink="http://www.w3.org/1999/xlink" x="0px" y="0px"
	 viewBox="0 0 100 125" style="enable-background:new 0 0 100 125;" xml:space="preserve">
<style type="text/css">
	.st0{fill:#606282;}
</style>
<path class="st0" d="M66,29.2L26.2,69c-2.1,2.1-2.1,5.5,0,7.6l0.2,0.2c2.1,2.1,5.5,2.1,7.6,0L73.8,37c2.1-2.1,2.1-5.5,0-7.6
	l-0.2-0.2C71.5,27.2,68.1,27.2,66,29.2z"/>
<path class="st0" d="M73.8,69L34,29.2c-2.1-2.1-5.5-2.1-7.6,0l-0.2,0.2c-2.1,2.1-2.1,5.5,0,7.6L66,76.8c2.1,2.1,5.5,2.1,7.6,0
	l0.2-0.2C75.9,74.5,75.9,71.1,73.8,69C73.8,69,73.8,69,73.8,69z"/>
</svg>
